<svg width="32" height="31" viewBox="0 0 32 31" fill="none" xmlns="http://www.w3.org/2000/svg">
<g filter="url(#filter0_d_443_3994)">
<path d="M27.7448 16.9503C27.6846 15.8342 27.6108 14.7025 27.5369 13.6072C27.4166 11.8627 27.2963 10.0607 27.2388 8.28749C27.2198 7.86318 27.1134 7.44658 26.9255 7.06151C26.7377 6.67644 26.4721 6.33043 26.144 6.04324C25.8158 5.75604 25.4316 5.53328 25.0132 5.38769C24.5947 5.24211 24.1503 5.17655 23.7053 5.19474C23.465 5.20456 23.2266 5.23953 22.9943 5.29904C21.315 5.73192 19.5866 6.11265 17.9183 6.47773C16.6821 6.73851 15.4022 7.03057 14.1496 7.33046C13.4618 7.50441 12.8217 7.81845 12.2734 8.25098C11.1931 9.11413 11.2014 10.358 11.2971 11.4559L11.3326 11.9565C11.3572 12.3451 11.3846 12.7389 11.4092 13.1222C11.4776 14.2044 12.1613 14.34 12.5633 14.3217C12.7008 14.323 12.8371 14.2973 12.9636 14.2461C13.0902 14.195 13.2044 14.1195 13.299 14.0245C13.4127 13.882 13.4955 13.7194 13.5424 13.5461C13.5894 13.3729 13.5996 13.1924 13.5725 13.0153C13.5588 12.7545 13.5397 12.4677 13.5233 12.1938C13.4905 11.6723 13.4549 11.1508 13.4467 10.6292C13.4467 9.9147 13.7202 9.53919 14.434 9.37751C17.7515 8.61345 20.7817 7.93284 23.6971 7.29134C23.8545 7.24443 24.0207 7.23086 24.1842 7.25158C24.3476 7.2723 24.5044 7.32681 24.6434 7.4113C24.7576 7.5021 24.8494 7.61575 24.9122 7.7442C24.9751 7.87266 25.0075 8.01274 25.0072 8.15449C25.2478 11.3672 25.4338 14.5956 25.5897 17.3728C25.6248 17.6387 25.5512 17.9073 25.3842 18.1229C25.2172 18.3385 24.9695 18.4845 24.6926 18.5306C21.2193 19.3416 18.1289 20.0353 15.2709 20.6481C15.1289 20.6902 14.9789 20.7023 14.8315 20.6833C14.6841 20.6644 14.5429 20.615 14.4176 20.5385C14.2835 20.4246 14.1763 20.2848 14.1032 20.1283C14.0301 19.9718 13.9928 19.8023 13.9937 19.6311C13.9472 19.0704 13.9089 18.5097 13.8734 17.9673C13.8745 17.8032 13.841 17.6406 13.7747 17.4892C13.7085 17.3377 13.6109 17.2006 13.4877 17.0859C13.3809 17.0008 13.2567 16.9377 13.1231 16.9004C12.9894 16.8632 12.8491 16.8527 12.711 16.8695C12.041 16.919 11.669 17.391 11.7155 18.1107C11.7155 18.2985 11.7456 18.4863 11.7647 18.6766C11.8112 19.0312 11.8304 19.3885 11.8222 19.7458C11.8193 20.1831 11.9228 20.615 12.1244 21.0078C12.3261 21.4005 12.6205 21.7433 12.9845 22.0093C13.5846 22.4872 14.3387 22.7542 15.1205 22.7655C15.3567 22.7667 15.592 22.7386 15.8206 22.6821C17.6311 22.2466 19.4799 21.8346 21.2658 21.4382C22.4363 21.1774 23.6479 20.9166 24.8349 20.635C26.9243 20.1526 27.8433 18.9765 27.7366 16.9321" fill="#051036"/>
<path d="M20.5377 11.2699L20.4967 10.7614C20.4639 10.378 20.4338 9.97905 20.4037 9.60615C20.3217 8.52655 19.6352 8.39878 19.2332 8.42225C19.096 8.4227 18.9604 8.45 18.8348 8.50248C18.7092 8.55497 18.5963 8.63151 18.5029 8.72735C18.3884 8.8698 18.3051 9.03283 18.2581 9.20668C18.2111 9.38053 18.2014 9.56162 18.2295 9.73914C18.2486 10.013 18.2705 10.2894 18.2924 10.5632C18.3306 11.0717 18.3717 11.6063 18.3881 12.1148C18.4127 12.8293 18.1146 13.2074 17.4199 13.3795C14.1107 14.1827 11.0914 14.8998 8.18415 15.57C8.02778 15.619 7.86207 15.6348 7.69861 15.6163C7.53515 15.5979 7.37791 15.5456 7.23788 15.4631C7.12198 15.3742 7.02825 15.2619 6.96345 15.1343C6.89865 15.0067 6.86441 14.8669 6.86319 14.7251C6.60884 11.8305 6.39552 8.95161 6.15485 5.51464C6.11627 5.24935 6.18619 4.98007 6.35013 4.76258C6.51407 4.5451 6.75947 4.39608 7.03549 4.34639C10.5061 3.48845 13.5774 2.75829 16.4272 2.10897C16.5689 2.06491 16.7191 2.05118 16.8671 2.06876C17.015 2.08634 17.1571 2.13479 17.2832 2.21067C17.419 2.32275 17.5281 2.46125 17.6031 2.61689C17.6781 2.77252 17.7173 2.94167 17.718 3.11295C17.7727 3.671 17.8192 4.23166 17.863 4.77406C17.8633 4.93811 17.8987 5.10038 17.9668 5.25101C18.035 5.40163 18.1346 5.53746 18.2595 5.65025C18.3674 5.73426 18.4923 5.79597 18.6265 5.83144C18.7607 5.86691 18.9012 5.87535 19.039 5.85625C19.709 5.79888 20.0755 5.33471 20.0181 4.60194C20.0044 4.41419 19.9825 4.22644 19.9607 4.03868C19.9097 3.68442 19.8859 3.32709 19.8895 2.96953C19.8863 2.53223 19.7766 2.10162 19.5692 1.71157C19.3618 1.32152 19.0624 0.982662 18.6944 0.72166C18.304 0.412528 17.8436 0.193958 17.3496 0.0831013C16.8556 -0.0277553 16.3414 -0.0278648 15.8474 0.082783C14.0451 0.541741 12.2017 0.977229 10.4213 1.38664C9.2535 1.66045 8.04741 1.94469 6.86593 2.23415C4.78193 2.75569 3.87668 3.92915 4.01342 5.97099C4.09 7.08449 4.18025 8.21625 4.2705 9.30888C4.41272 11.0508 4.54399 12.8528 4.63972 14.626C4.66366 15.1068 4.80192 15.5762 5.04403 15.9986C5.28613 16.4209 5.62576 16.7854 6.03725 17.0642C6.61324 17.4646 7.30729 17.6809 8.02006 17.6823C8.3262 17.6827 8.6309 17.6423 8.92531 17.5623C10.5963 17.1085 12.3193 16.707 13.9849 16.321C15.2156 16.0316 16.4901 15.7369 17.7399 15.4188C18.4257 15.2391 19.0616 14.9177 19.6024 14.4774C20.6717 13.6012 20.6471 12.3573 20.535 11.2594" fill="#051036"/>
<path d="M11.582 20.7689L7.96922 17.976C7.79296 17.8512 7.57192 17.7982 7.35471 17.8288C7.1375 17.8593 6.94191 17.9709 6.81099 18.139C6.68007 18.3071 6.62452 18.5178 6.65658 18.7249C6.68864 18.932 6.80566 19.1185 6.98192 19.2434L10.592 22.044C10.7683 22.1692 10.9894 22.2225 11.2069 22.1922C11.4244 22.1619 11.6203 22.0504 11.7516 21.8824C11.8829 21.7143 11.9388 21.5034 11.907 21.296C11.8752 21.0887 11.7583 20.9019 11.582 20.7767" fill="#051036"/>
<path d="M24.9532 4.07423C24.9402 3.9722 24.9062 3.87361 24.8531 3.78412C24.8001 3.69464 24.7291 3.616 24.6442 3.55269L21.0888 0.699845C20.9591 0.60233 20.8016 0.544401 20.6368 0.533632C20.4721 0.522863 20.3077 0.559743 20.1653 0.639475C20.0229 0.719206 19.909 0.838074 19.8386 0.980512C19.7682 1.12295 19.7445 1.28233 19.7706 1.43782C19.7824 1.53988 19.8156 1.63863 19.8682 1.72822C19.9208 1.81782 19.9918 1.89642 20.0769 1.95936L23.6323 4.8122C23.7714 4.91404 23.941 4.9707 24.1163 4.97388H24.13C24.2585 4.97439 24.3854 4.94611 24.5004 4.89131C24.6153 4.8365 24.7152 4.7567 24.7919 4.65836C24.858 4.57605 24.9064 4.48201 24.9341 4.38173C24.9618 4.28145 24.9683 4.17693 24.9532 4.07423Z" fill="#051036"/>
<path d="M20.5377 11.2699L20.4967 10.7614C20.4639 10.378 20.4338 9.97905 20.4037 9.60615C20.3217 8.52655 19.6352 8.39878 19.2332 8.42225C19.096 8.4227 18.9604 8.45 18.8348 8.50248C18.7092 8.55497 18.5963 8.63151 18.5029 8.72735C18.3884 8.8698 18.3051 9.03283 18.2581 9.20668C18.2111 9.38053 18.2014 9.56162 18.2295 9.73914C18.2486 10.013 18.2705 10.2894 18.2924 10.5632C18.3306 11.0717 18.3717 11.6063 18.3881 12.1148C18.4127 12.8293 18.1146 13.2074 17.4199 13.3795C14.1107 14.1827 11.0914 14.8998 8.18415 15.57C8.02778 15.619 7.86207 15.6348 7.69861 15.6163C7.53515 15.5979 7.37791 15.5456 7.23788 15.4631C7.12198 15.3742 7.02825 15.2619 6.96345 15.1343C6.89865 15.0067 6.86441 14.8669 6.86319 14.7251C6.60884 11.8305 6.39552 8.95161 6.15485 5.51464C6.11627 5.24935 6.18619 4.98007 6.35013 4.76258C6.51407 4.5451 6.75947 4.39608 7.03549 4.34639C10.5061 3.48845 13.5774 2.75829 16.4272 2.10897C16.5689 2.06491 16.7191 2.05118 16.8671 2.06876C17.015 2.08634 17.1571 2.13479 17.2832 2.21067C17.419 2.32275 17.5281 2.46125 17.6031 2.61689C17.6781 2.77252 17.7173 2.94167 17.718 3.11295C17.7727 3.671 17.8192 4.23166 17.863 4.77406C17.8633 4.93811 17.8987 5.10038 17.9668 5.25101C18.035 5.40163 18.1346 5.53746 18.2595 5.65025C18.3674 5.73426 18.4923 5.79597 18.6265 5.83144C18.7607 5.86691 18.9012 5.87535 19.039 5.85625C19.709 5.79888 20.0755 5.33471 20.0181 4.60194C20.0044 4.41419 19.9825 4.22644 19.9607 4.03868C19.9097 3.68442 19.8859 3.32709 19.8895 2.96953C19.8863 2.53223 19.7766 2.10162 19.5692 1.71157C19.3618 1.32152 19.0624 0.982662 18.6944 0.72166C18.304 0.412528 17.8436 0.193958 17.3496 0.0831013C16.8556 -0.0277553 16.3414 -0.0278648 15.8474 0.082783C14.0451 0.541741 12.2017 0.977229 10.4213 1.38664C9.2535 1.66045 8.04741 1.94469 6.86593 2.23415C4.78193 2.75569 3.87668 3.92915 4.01342 5.97099C4.09 7.08449 4.18025 8.21625 4.2705 9.30888C4.41272 11.0508 4.54399 12.8528 4.63972 14.626C4.66366 15.1068 4.80192 15.5762 5.04403 15.9986C5.28613 16.4209 5.62576 16.7854 6.03725 17.0642C6.61324 17.4646 7.30729 17.6809 8.02006 17.6823C8.3262 17.6827 8.6309 17.6423 8.92531 17.5623C10.5963 17.1085 12.3193 16.707 13.9849 16.321C15.2156 16.0316 16.4901 15.7369 17.7399 15.4188C18.4257 15.2391 19.0616 14.9177 19.6024 14.4774C20.6717 13.6012 20.6471 12.3573 20.535 11.2594" fill="#051036"/>
<path d="M11.5806 20.7679L7.96776 17.975C7.7915 17.8502 7.57045 17.7972 7.35324 17.8278C7.13603 17.8584 6.94045 17.97 6.80952 18.138C6.6786 18.3061 6.62306 18.5168 6.65511 18.7239C6.68717 18.9311 6.8042 19.1175 6.98046 19.2424L10.5905 22.0431C10.7668 22.1682 10.988 22.2215 11.2054 22.1912C11.4229 22.1609 11.6188 22.0495 11.7501 21.8814C11.8814 21.7133 11.9373 21.5024 11.9055 21.2951C11.8737 21.0877 11.7568 20.9009 11.5806 20.7757" fill="#051036"/>
<path d="M11.5806 20.7687L7.96776 17.9758C7.7915 17.851 7.57045 17.798 7.35324 17.8286C7.13603 17.8592 6.94045 17.9708 6.80952 18.1388C6.6786 18.3069 6.62306 18.5176 6.65511 18.7247C6.68717 18.9318 6.8042 19.1183 6.98046 19.2432L10.5905 22.0439C10.7668 22.169 10.988 22.2223 11.2054 22.192C11.4229 22.1617 11.6188 22.0502 11.7501 21.8822C11.8814 21.7141 11.9373 21.5032 11.9055 21.2959C11.8737 21.0885 11.7568 20.9017 11.5806 20.7765" fill="#051036"/>
</g>
<defs>
<filter id="filter0_d_443_3994" x="0" y="-0.00012207" width="31.7449" height="30.7657" filterUnits="userSpaceOnUse" color-interpolation-filters="sRGB">
<feFlood flood-opacity="0" result="BackgroundImageFix"/>
<feColorMatrix in="SourceAlpha" type="matrix" values="0 0 0 0 0 0 0 0 0 0 0 0 0 0 0 0 0 0 127 0" result="hardAlpha"/>
<feOffset dy="4"/>
<feGaussianBlur stdDeviation="2"/>
<feComposite in2="hardAlpha" operator="out"/>
<feColorMatrix type="matrix" values="0 0 0 0 0 0 0 0 0 0 0 0 0 0 0 0 0 0 0.25 0"/>
<feBlend mode="normal" in2="BackgroundImageFix" result="effect1_dropShadow_443_3994"/>
<feBlend mode="normal" in="SourceGraphic" in2="effect1_dropShadow_443_3994" result="shape"/>
</filter>
</defs>
</svg>
