<svg width="245" height="29" viewBox="0 0 245 29" fill="none" xmlns="http://www.w3.org/2000/svg">
<path d="M57.756 27.36C55.764 27.36 54.072 27 52.68 26.28C51.288 25.56 50.04 24.504 48.936 23.112L51.744 20.304C52.44 21.312 53.268 22.104 54.228 22.68C55.188 23.232 56.412 23.508 57.9 23.508C59.292 23.508 60.396 23.22 61.212 22.644C62.052 22.068 62.472 21.276 62.472 20.268C62.472 19.428 62.256 18.744 61.824 18.216C61.392 17.688 60.816 17.256 60.096 16.92C59.4 16.56 58.62 16.248 57.756 15.984C56.916 15.696 56.064 15.384 55.2 15.048C54.36 14.688 53.58 14.244 52.86 13.716C52.164 13.188 51.6 12.504 51.168 11.664C50.736 10.824 50.52 9.756 50.52 8.46C50.52 6.972 50.88 5.712 51.6 4.68C52.344 3.624 53.34 2.82 54.588 2.268C55.836 1.716 57.228 1.44 58.764 1.44C60.42 1.44 61.896 1.764 63.192 2.412C64.512 3.06 65.58 3.888 66.396 4.896L63.588 7.704C62.868 6.888 62.112 6.288 61.32 5.904C60.552 5.496 59.664 5.292 58.656 5.292C57.408 5.292 56.424 5.544 55.704 6.048C55.008 6.552 54.66 7.26 54.66 8.172C54.66 8.94 54.876 9.564 55.308 10.044C55.74 10.5 56.304 10.896 57 11.232C57.72 11.544 58.5 11.844 59.34 12.132C60.204 12.42 61.056 12.744 61.896 13.104C62.76 13.464 63.54 13.932 64.236 14.508C64.956 15.06 65.532 15.78 65.964 16.668C66.396 17.556 66.612 18.672 66.612 20.016C66.612 22.272 65.808 24.06 64.2 25.38C62.616 26.7 60.468 27.36 57.756 27.36ZM83.4428 27.36C81.6428 27.36 79.9628 27.024 78.4028 26.352C76.8428 25.68 75.4748 24.756 74.2988 23.58C73.1228 22.38 72.1988 21 71.5268 19.44C70.8788 17.856 70.5548 16.164 70.5548 14.364C70.5548 12.564 70.8788 10.884 71.5268 9.324C72.1988 7.764 73.1108 6.396 74.2628 5.22C75.4388 4.02 76.7948 3.096 78.3308 2.448C79.8908 1.776 81.5708 1.44 83.3708 1.44C85.1708 1.44 86.8388 1.776 88.3748 2.448C89.9348 3.096 91.3028 4.02 92.4788 5.22C93.6548 6.396 94.5668 7.776 95.2148 9.36C95.8868 10.92 96.2228 12.6 96.2228 14.4C96.2228 16.2 95.8868 17.892 95.2148 19.476C94.5668 21.036 93.6548 22.404 92.4788 23.58C91.3268 24.756 89.9708 25.68 88.4108 26.352C86.8748 27.024 85.2188 27.36 83.4428 27.36ZM83.3708 23.4C85.0748 23.4 86.5628 23.016 87.8348 22.248C89.1308 21.48 90.1388 20.424 90.8588 19.08C91.6028 17.712 91.9748 16.14 91.9748 14.364C91.9748 13.044 91.7588 11.844 91.3268 10.764C90.9188 9.66 90.3308 8.712 89.5628 7.92C88.7948 7.104 87.8828 6.48 86.8268 6.048C85.7948 5.616 84.6428 5.4 83.3708 5.4C81.6908 5.4 80.2028 5.784 78.9068 6.552C77.6348 7.296 76.6268 8.34 75.8828 9.684C75.1628 11.028 74.8028 12.588 74.8028 14.364C74.8028 15.684 75.0068 16.908 75.4148 18.036C75.8468 19.14 76.4348 20.088 77.1788 20.88C77.9468 21.672 78.8588 22.296 79.9148 22.752C80.9708 23.184 82.1228 23.4 83.3708 23.4ZM101.333 27V1.8H104.213L114.689 19.044H112.817L123.293 1.8H126.173V27H122.033V9.072L122.969 9.324L115.193 22.104H112.313L104.537 9.324L105.473 9.072V27H101.333ZM132.538 27V1.8H136.678V27H132.538ZM148.558 27V1.8H152.698V27H148.558ZM135.382 15.84V12.06H149.458V15.84H135.382ZM157.194 27L167.562 1.8H170.442L180.738 27H176.274L168.21 6.588H169.722L161.586 27H157.194ZM162.306 22.14V18.54H175.662V22.14H162.306ZM200.191 27L188.527 13.86L199.939 1.8H205.231L192.631 14.904V12.636L205.591 27H200.191ZM184.963 27V1.8H189.103V27H184.963ZM219.322 27.36C217.522 27.36 215.842 27.024 214.282 26.352C212.722 25.68 211.354 24.756 210.178 23.58C209.002 22.38 208.078 21 207.406 19.44C206.758 17.856 206.434 16.164 206.434 14.364C206.434 12.564 206.758 10.884 207.406 9.324C208.078 7.764 208.99 6.396 210.142 5.22C211.318 4.02 212.674 3.096 214.21 2.448C215.77 1.776 217.45 1.44 219.25 1.44C221.05 1.44 222.718 1.776 224.254 2.448C225.814 3.096 227.182 4.02 228.358 5.22C229.534 6.396 230.446 7.776 231.094 9.36C231.766 10.92 232.102 12.6 232.102 14.4C232.102 16.2 231.766 17.892 231.094 19.476C230.446 21.036 229.534 22.404 228.358 23.58C227.206 24.756 225.85 25.68 224.29 26.352C222.754 27.024 221.098 27.36 219.322 27.36ZM219.25 23.4C220.954 23.4 222.442 23.016 223.714 22.248C225.01 21.48 226.018 20.424 226.738 19.08C227.482 17.712 227.854 16.14 227.854 14.364C227.854 13.044 227.638 11.844 227.206 10.764C226.798 9.66 226.21 8.712 225.442 7.92C224.674 7.104 223.762 6.48 222.706 6.048C221.674 5.616 220.522 5.4 219.25 5.4C217.57 5.4 216.082 5.784 214.786 6.552C213.514 7.296 212.506 8.34 211.762 9.684C211.042 11.028 210.682 12.588 210.682 14.364C210.682 15.684 210.886 16.908 211.294 18.036C211.726 19.14 212.314 20.088 213.058 20.88C213.826 21.672 214.738 22.296 215.794 22.752C216.85 23.184 218.002 23.4 219.25 23.4Z" fill="#051036"/>
<path d="M33.1069 21.4179C33.023 20.0076 32.9201 18.5776 32.8171 17.1937C32.6493 14.9893 32.4816 12.7125 32.4015 10.4719C32.375 9.93577 32.2266 9.40938 31.9646 8.92282C31.7027 8.43626 31.3324 7.99906 30.8749 7.63617C30.4174 7.27328 29.8817 6.99182 29.2983 6.80786C28.7149 6.62391 28.0953 6.54106 27.4748 6.56405C27.1398 6.57646 26.8073 6.62065 26.4834 6.69584C24.1421 7.24281 21.7322 7.72389 19.4061 8.18518C17.6826 8.51468 15.898 8.88373 14.1516 9.26265C13.1926 9.48244 12.3001 9.87925 11.5357 10.4258C10.0295 11.5164 10.041 13.0881 10.1744 14.4753L10.224 15.108C10.2583 15.5989 10.2964 16.0965 10.3308 16.5808C10.4261 17.9482 11.3794 18.1196 11.9399 18.0965C12.1316 18.0981 12.3216 18.0656 12.498 18.001C12.6745 17.9363 12.8337 17.841 12.9657 17.7209C13.1242 17.5409 13.2395 17.3355 13.305 17.1165C13.3705 16.8976 13.3848 16.6695 13.347 16.4457C13.3279 16.1162 13.3012 15.7538 13.2784 15.4078C13.2326 14.7488 13.183 14.0898 13.1716 13.4308C13.1716 12.528 13.5529 12.0535 14.5481 11.8492C19.1735 10.8838 23.3986 10.0238 27.4634 9.21322C27.6828 9.15395 27.9146 9.1368 28.1425 9.16298C28.3704 9.18916 28.5889 9.25804 28.7828 9.3648C28.9419 9.47952 29.0699 9.62313 29.1576 9.78544C29.2452 9.94775 29.2904 10.1248 29.2899 10.3039C29.6255 14.3633 29.8848 18.4425 30.1021 21.9517C30.1511 22.2877 30.0485 22.6271 29.8156 22.8995C29.5828 23.1719 29.2375 23.3563 28.8514 23.4146C24.0087 24.4394 19.6998 25.3158 15.715 26.0902C15.517 26.1434 15.3079 26.1586 15.1024 26.1347C14.8969 26.1108 14.6999 26.0484 14.5253 25.9518C14.3383 25.8078 14.1888 25.6311 14.0869 25.4334C13.985 25.2357 13.933 25.0215 13.9342 24.8051C13.8694 24.0967 13.816 23.3883 13.7664 22.7029C13.7681 22.4956 13.7213 22.2901 13.6289 22.0987C13.5365 21.9074 13.4004 21.7341 13.2288 21.5892C13.0798 21.4817 12.9067 21.4019 12.7203 21.3549C12.534 21.3078 12.3384 21.2945 12.1458 21.3157C11.2116 21.3783 10.693 21.9747 10.7578 22.8841C10.7578 23.1214 10.7998 23.3586 10.8265 23.5992C10.8913 24.0472 10.918 24.4987 10.9065 24.9501C10.9025 25.5026 11.0468 26.0484 11.328 26.5447C11.6092 27.0409 12.0196 27.4741 12.5272 27.8101C13.3639 28.414 14.4152 28.7514 15.5053 28.7657C15.8345 28.7671 16.1627 28.7317 16.4814 28.6603C19.0058 28.11 21.5835 27.5894 24.0735 27.0885C25.7055 26.759 27.3948 26.4295 29.0497 26.0737C31.963 25.4641 33.2442 23.9781 33.0955 21.3948" fill="#051036"/>
<path d="M23.058 14.2403L23.0008 13.5977C22.955 13.1134 22.9131 12.6092 22.8711 12.138C22.7568 10.7739 21.7996 10.6125 21.2391 10.6421C21.0479 10.6427 20.8588 10.6772 20.6837 10.7435C20.5086 10.8098 20.3511 10.9065 20.221 11.0276C20.0612 11.2076 19.9451 11.4136 19.8796 11.6333C19.8141 11.853 19.8005 12.0818 19.8397 12.3061C19.8664 12.6521 19.8969 13.0013 19.9274 13.3473C19.9808 13.9898 20.038 14.6653 20.0608 15.3078C20.0952 16.2107 19.6795 16.6884 18.711 16.9059C14.097 17.9208 9.88724 18.8269 5.83382 19.6737C5.6158 19.7356 5.38475 19.7556 5.15685 19.7323C4.92895 19.7089 4.70971 19.6428 4.51446 19.5386C4.35288 19.4263 4.22219 19.2844 4.13184 19.1231C4.04149 18.9619 3.99375 18.7853 3.99205 18.6061C3.63743 14.9487 3.34 11.311 3.00444 6.96821C2.95064 6.63299 3.04813 6.29274 3.27671 6.01794C3.50529 5.74314 3.84744 5.55484 4.23229 5.49206C9.07122 4.408 13.3534 3.4854 17.3268 2.66495C17.5244 2.60928 17.7338 2.59194 17.9401 2.61415C18.1464 2.63636 18.3445 2.69758 18.5203 2.79346C18.7097 2.93507 18.8618 3.11008 18.9664 3.30673C19.071 3.50338 19.1256 3.71711 19.1266 3.93353C19.2029 4.63866 19.2677 5.34708 19.3287 6.03244C19.3292 6.23973 19.3785 6.44476 19.4735 6.63509C19.5686 6.82541 19.7074 6.99704 19.8816 7.13955C20.032 7.24571 20.2062 7.32368 20.3933 7.3685C20.5804 7.41331 20.7762 7.42397 20.9684 7.39985C21.9026 7.32736 22.4136 6.74085 22.3335 5.81496C22.3144 5.57772 22.2839 5.34049 22.2534 5.10325C22.1823 4.65562 22.1492 4.20411 22.1543 3.75231C22.1497 3.19976 21.9968 2.65566 21.7077 2.16282C21.4185 1.66997 21.001 1.2418 20.4879 0.912012C19.9435 0.521406 19.3017 0.245231 18.613 0.105157C17.9242 -0.034916 17.2072 -0.0350545 16.5184 0.104755C14.0055 0.684673 11.4354 1.23494 8.95301 1.75225C7.32478 2.09822 5.64317 2.45738 3.99587 2.82312C1.09022 3.48212 -0.171947 4.96485 0.0187121 7.54483C0.125481 8.95179 0.251318 10.3818 0.377153 11.7624C0.575438 13.9635 0.758474 16.2403 0.891935 18.4809C0.925326 19.0884 1.11809 19.6815 1.45565 20.2152C1.79321 20.7489 2.26675 21.2094 2.84047 21.5617C3.64356 22.0676 4.61124 22.3409 5.60504 22.3426C6.03188 22.3432 6.45672 22.2922 6.8672 22.1911C9.19706 21.6177 11.5994 21.1103 13.9216 20.6226C15.6375 20.2569 17.4145 19.8846 19.1571 19.4826C20.1133 19.2556 20.9998 18.8495 21.7539 18.2931C23.2448 17.186 23.2105 15.6143 23.0542 14.2271" fill="#051036"/>
<path d="M10.5717 26.2427L5.53444 22.7138C5.28869 22.5561 4.98049 22.4892 4.67764 22.5278C4.37479 22.5664 4.1021 22.7074 3.91956 22.9198C3.73701 23.1321 3.65957 23.3984 3.70427 23.6601C3.74896 23.9218 3.91213 24.1575 4.15788 24.3152L9.19129 27.854C9.43704 28.0122 9.74544 28.0795 10.0486 28.0412C10.3519 28.0029 10.625 27.8621 10.8081 27.6497C10.9911 27.4374 11.0691 27.1709 11.0247 26.9089C10.9804 26.6469 10.8174 26.4108 10.5717 26.2526" fill="#051036"/>
<path d="M29.2145 5.14817C29.1963 5.01925 29.1489 4.89468 29.075 4.78161C29.001 4.66854 28.902 4.56917 28.7836 4.48918L23.8265 0.884454C23.6457 0.761238 23.426 0.688042 23.1963 0.674434C22.9666 0.660827 22.7374 0.707428 22.5389 0.808173C22.3403 0.908917 22.1815 1.05911 22.0833 1.23909C21.9852 1.41907 21.9521 1.62045 21.9885 1.81692C22.005 1.94588 22.0513 2.07066 22.1247 2.18387C22.198 2.29707 22.297 2.39639 22.4156 2.47592L27.3727 6.08064C27.5667 6.20932 27.8032 6.28091 28.0477 6.28493H28.0667C28.2459 6.28558 28.4228 6.24985 28.5831 6.18059C28.7434 6.11134 28.8826 6.01052 28.9895 5.88625C29.0818 5.78225 29.1492 5.66343 29.1878 5.53672C29.2264 5.41001 29.2355 5.27794 29.2145 5.14817" fill="#051036"/>
<path d="M23.058 14.2403L23.0008 13.5977C22.955 13.1134 22.9131 12.6092 22.8711 12.138C22.7568 10.7739 21.7996 10.6125 21.2391 10.6421C21.0479 10.6427 20.8588 10.6772 20.6837 10.7435C20.5086 10.8098 20.3511 10.9065 20.221 11.0276C20.0612 11.2076 19.9451 11.4136 19.8796 11.6333C19.8141 11.853 19.8005 12.0818 19.8397 12.3061C19.8664 12.6521 19.8969 13.0013 19.9274 13.3473C19.9808 13.9898 20.038 14.6653 20.0608 15.3078C20.0952 16.2107 19.6795 16.6884 18.711 16.9059C14.097 17.9208 9.88724 18.8269 5.83382 19.6737C5.6158 19.7356 5.38475 19.7556 5.15685 19.7323C4.92895 19.7089 4.70971 19.6428 4.51446 19.5386C4.35288 19.4263 4.22219 19.2844 4.13184 19.1231C4.04149 18.9619 3.99375 18.7853 3.99205 18.6061C3.63743 14.9487 3.34 11.311 3.00444 6.96821C2.95064 6.63299 3.04813 6.29274 3.27671 6.01794C3.50529 5.74314 3.84744 5.55484 4.23229 5.49206C9.07122 4.408 13.3534 3.4854 17.3268 2.66495C17.5244 2.60928 17.7338 2.59194 17.9401 2.61415C18.1464 2.63636 18.3445 2.69758 18.5203 2.79346C18.7097 2.93507 18.8618 3.11008 18.9664 3.30673C19.071 3.50338 19.1256 3.71711 19.1266 3.93353C19.2029 4.63866 19.2677 5.34708 19.3287 6.03244C19.3292 6.23973 19.3785 6.44476 19.4735 6.63509C19.5686 6.82541 19.7074 6.99704 19.8816 7.13955C20.032 7.24571 20.2062 7.32368 20.3933 7.3685C20.5804 7.41331 20.7762 7.42397 20.9684 7.39985C21.9026 7.32736 22.4136 6.74085 22.3335 5.81496C22.3144 5.57772 22.2839 5.34049 22.2534 5.10325C22.1823 4.65562 22.1492 4.20411 22.1543 3.75231C22.1497 3.19976 21.9968 2.65566 21.7077 2.16282C21.4185 1.66997 21.001 1.2418 20.4879 0.912012C19.9435 0.521406 19.3017 0.245231 18.613 0.105157C17.9242 -0.034916 17.2072 -0.0350545 16.5184 0.104755C14.0055 0.684673 11.4354 1.23494 8.95301 1.75225C7.32478 2.09822 5.64317 2.45738 3.99587 2.82312C1.09022 3.48212 -0.171947 4.96485 0.0187121 7.54483C0.125481 8.95179 0.251318 10.3818 0.377153 11.7624C0.575438 13.9635 0.758474 16.2403 0.891935 18.4809C0.925326 19.0884 1.11809 19.6815 1.45565 20.2152C1.79321 20.7489 2.26675 21.2094 2.84047 21.5617C3.64356 22.0676 4.61124 22.3409 5.60504 22.3426C6.03188 22.3432 6.45672 22.2922 6.8672 22.1911C9.19706 21.6177 11.5994 21.1103 13.9216 20.6226C15.6375 20.2569 17.4145 19.8846 19.1571 19.4826C20.1133 19.2556 20.9998 18.8495 21.7539 18.2931C23.2448 17.186 23.2105 15.6143 23.0542 14.2271" fill="#051036"/>
<path d="M10.5692 26.2415L5.532 22.7126C5.28625 22.5549 4.97805 22.4879 4.6752 22.5266C4.37235 22.5652 4.09966 22.7062 3.91712 22.9185C3.73457 23.1309 3.65713 23.3972 3.70183 23.6589C3.74652 23.9206 3.90969 24.1562 4.15544 24.314L9.18885 27.8528C9.4346 28.011 9.743 28.0783 10.0462 28.04C10.3494 28.0017 10.6226 27.8608 10.8056 27.6485C10.9887 27.4361 11.0666 27.1696 11.0223 26.9076C10.9779 26.6456 10.815 26.4096 10.5692 26.2514" fill="#051036"/>
<path d="M10.5692 26.2425L5.532 22.7136C5.28625 22.5558 4.97805 22.4889 4.6752 22.5275C4.37235 22.5662 4.09966 22.7072 3.91712 22.9195C3.73457 23.1319 3.65713 23.3982 3.70183 23.6599C3.74652 23.9216 3.90969 24.1572 4.15544 24.3149L9.18885 27.8538C9.4346 28.0119 9.743 28.0793 10.0462 28.041C10.3494 28.0026 10.6226 27.8618 10.8056 27.6495C10.9887 27.4371 11.0666 27.1706 11.0223 26.9086C10.9779 26.6466 10.815 26.4106 10.5692 26.2524" fill="#051036"/>
</svg>
